<svg id="Livello_1" data-name="Livello 1" xmlns="http://www.w3.org/2000/svg" viewBox="0 0 500 228.36"><defs><style>.cls-1{fill:#27348b;}.cls-2{fill:#16141b;}.cls-3{fill:#c12235;}.cls-4,.cls-5{fill:none;stroke-miterlimit:10;stroke-width:0.19px;}.cls-4{stroke:#c53e41;}.cls-5{stroke:#27348b;}.cls-6{fill:#fff;}</style></defs><path class="cls-1" d="M303,138.19c-7.89,0-13.4-5.91-13.4-14.38V101.44a.12.12,0,0,1,.12-.13h6.94a.13.13,0,0,1,.12.13v21.34c0,2.72.77,9,7.91,9,5.27,0,8.29-3.27,8.29-9V101.44a.12.12,0,0,1,.12-.13h6.94a.12.12,0,0,1,.12.13v28.95a59.18,59.18,0,0,0,.37,6.55.17.17,0,0,1,0,.1.13.13,0,0,1-.1,0h-6.64a.12.12,0,0,1-.12-.1,27,27,0,0,1-.27-3,.26.26,0,0,0-.18-.24h0a.27.27,0,0,0-.24.1c-2.94,4.06-8.33,4.37-9.91,4.37" transform="translate(0 0)"/><path class="cls-1" d="M355.31,137.08a.12.12,0,0,1-.12-.12V115.62c0-5.85-2.74-8.81-8.14-8.81-4.94,0-8.13,3.78-8.13,9.62V137a.12.12,0,0,1-.13.12h-6.93a.12.12,0,0,1-.13-.12V101.44a.13.13,0,0,1,.13-.13h6.79a.12.12,0,0,1,.12.13v3.81a.26.26,0,0,0,.18.24H339a.25.25,0,0,0,.23-.1,12.36,12.36,0,0,1,10.33-5.11c7.9,0,12.82,5.42,12.82,14.16V137a.12.12,0,0,1-.13.12Z" transform="translate(0 0)"/><rect class="cls-1" x="373.19" y="101.31" width="7.11" height="35.77" rx="0.13"/><path class="cls-1" d="M392,73.25h75.2a.13.13,0,0,1,.13.13V79a.13.13,0,0,1-.13.13H392a.12.12,0,0,1-.12-.12V73.38A.13.13,0,0,1,392,73.25Z"/><rect class="cls-1" x="289.62" y="159.28" width="90.68" height="5.87" rx="0.13"/><path class="cls-1" d="M449.51,152.22c-8.8,0-15.59-5.48-16.5-13.33a.13.13,0,0,1,.1-.14l6.71-1.55.1,0a.12.12,0,0,1,.05.09,9.34,9.34,0,0,0,9.54,8.6c7.31,0,10.71-3.62,10.71-11.39v-3.75a.25.25,0,0,0-.18-.24H460a.25.25,0,0,0-.23.09,12.43,12.43,0,0,1-10.25,4.77c-9.52,0-16.43-7.29-16.43-17.33s6.91-17.41,16.43-17.41a13.84,13.84,0,0,1,8.23,2.4.11.11,0,0,1,0,.16l-2.48,4.61a.11.11,0,0,1-.11.07,10.21,10.21,0,0,0-4.64-1.08c-6.05,0-10.12,4.52-10.12,11.25,0,6.93,3.87,11.24,10.12,11.24,6,0,10-4.52,10-11.24V101.44a.13.13,0,0,1,.12-.13h6.64a.13.13,0,0,1,.13.13V134.3c0,5.39-1.75,17.92-17.9,17.92" transform="translate(0 0)"/><path class="cls-1" d="M392,151.11a.12.12,0,0,1-.13-.12V101.44a.13.13,0,0,1,.13-.13h6.71a.12.12,0,0,1,.12.13v4.2a.25.25,0,0,0,.18.24H399a.24.24,0,0,0,.23-.1c2.38-3.36,6.49-5.29,11.29-5.29,10,0,16.43,7.33,16.43,18.66S420.3,138,410.34,138a14.82,14.82,0,0,1-8.51-2.52.11.11,0,0,1,0-.16l2.62-4.89a.16.16,0,0,1,.08-.06h.09a9.89,9.89,0,0,0,4.73,1.17c6.19,0,10.34-5,10.34-12.43s-4.15-12.28-10.34-12.28-10.42,5.05-10.42,12.28V151a.12.12,0,0,1-.13.12Z" transform="translate(0 0)"/><path class="cls-2" d="M289.62,195.86v-8.38h1.73v8.32c0,1.94,1.06,3,2.84,3s2.81-1.1,2.81-3v-8.32h1.76v8.38a4.57,4.57,0,1,1-9.14,0" transform="translate(0 0)"/><polygon class="cls-2" points="310.43 200.21 303.56 189.83 303.56 200.21 301.81 200.21 301.81 187.48 304.15 187.48 310.5 197.24 310.5 187.48 312.26 187.48 312.26 200.21 310.43 200.21"/><rect class="cls-2" x="315.48" y="187.48" width="1.79" height="12.73"/><polygon class="cls-2" points="328.64 187.48 330.49 187.48 325.6 200.21 323.85 200.21 319.07 187.48 320.93 187.48 324.77 197.94 328.64 187.48"/><polygon class="cls-2" points="332.28 200.21 332.28 187.48 340.01 187.48 340.01 189.11 334.04 189.11 334.04 193.02 339.45 193.02 339.45 194.68 334.04 194.68 334.04 198.57 340.01 198.57 340.01 200.21 332.28 200.21"/><path class="cls-2" d="M346.37,195h-1.9v5.21H342.7V187.48h4.78a3.67,3.67,0,0,1,3.89,3.78,3.55,3.55,0,0,1-3.08,3.61l3,5.34h-2Zm.79-1.58a2.19,2.19,0,1,0,0-4.36h-2.69v4.36Z" transform="translate(0 0)"/><path class="cls-2" d="M360.32,190.92a2.58,2.58,0,0,0-2.69-2.17,2.25,2.25,0,0,0-2.46,2.12,1.86,1.86,0,0,0,1.63,1.85l1.9.41c2.12.47,3.3,1.8,3.3,3.57,0,2-1.68,3.77-4.39,3.77a4.41,4.41,0,0,1-4.75-3.78l1.69-.54a2.88,2.88,0,0,0,3,2.72c1.76,0,2.62-.91,2.62-2a2.07,2.07,0,0,0-1.9-2l-1.81-.39a3.52,3.52,0,0,1-3.1-3.49,4,4,0,0,1,4.19-3.78,4,4,0,0,1,4.31,3.16Z" transform="translate(0 0)"/><rect class="cls-2" x="364.42" y="187.48" width="1.79" height="12.73"/><polygon class="cls-2" points="374.01 189.11 374.01 200.2 372.26 200.2 372.26 189.11 368.01 189.11 368.01 187.48 378.26 187.48 378.26 189.11 374.01 189.11"/><path class="cls-2" d="M386.31,196.65h-5.63l-1.34,3.55h-1.89l5.06-12.72h2l5,12.72h-1.9Zm-6.11-12.21h2.31l1.83,2.14h-1.67ZM381.31,195h4.37l-2.2-5.71Z" transform="translate(0 0)"/><path class="cls-2" d="M395.87,200.2V187.48h4.44c3.23,0,6,2.2,6,6.39s-2.85,6.33-6.07,6.33Zm4.35-1.56c2.35,0,4.32-1.58,4.32-4.77s-1.93-4.83-4.28-4.83h-2.64v9.6Z" transform="translate(0 0)"/><polygon class="cls-2" points="408.77 200.21 408.77 187.48 416.5 187.48 416.5 189.11 410.53 189.11 410.53 193.02 415.94 193.02 415.94 194.68 410.53 194.68 410.53 198.57 416.5 198.57 416.5 200.21 408.77 200.21"/><path class="cls-2" d="M428.69,200.2l-.16-1.79a4.54,4.54,0,0,1-4.07,2.06c-3.19,0-6.17-2.33-6.17-6.64a6.27,6.27,0,0,1,6.29-6.62,5.64,5.64,0,0,1,5.63,3.84l-1.59.68a4,4,0,0,0-4-2.91c-2.27,0-4.5,1.64-4.5,5s2.16,5,4.43,5a3.62,3.62,0,0,0,3.93-3.33H424V194h6.08v6.23Z" transform="translate(0 0)"/><polygon class="cls-2" points="432.81 200.21 432.81 187.48 434.57 187.48 434.57 198.55 440.57 198.55 440.57 200.21 432.81 200.21"/><rect class="cls-2" x="442.64" y="187.48" width="1.79" height="12.73"/><path class="cls-2" d="M458.66,190.92a2.58,2.58,0,0,0-2.69-2.17,2.24,2.24,0,0,0-2.45,2.12,1.85,1.85,0,0,0,1.63,1.85l1.9.41c2.11.47,3.3,1.8,3.3,3.57,0,2-1.69,3.77-4.4,3.77a4.42,4.42,0,0,1-4.75-3.78l1.69-.54a2.89,2.89,0,0,0,3.05,2.72c1.76,0,2.62-.91,2.62-2,0-.91-.63-1.7-1.91-2l-1.81-.39a3.52,3.52,0,0,1-3.1-3.49,4.05,4.05,0,0,1,4.2-3.78,4,4,0,0,1,4.3,3.16Z" transform="translate(0 0)"/><polygon class="cls-2" points="467.25 189.11 467.25 200.2 465.49 200.2 465.49 189.11 461.24 189.11 461.24 187.48 471.5 187.48 471.5 189.11 467.25 189.11"/><path class="cls-2" d="M473.11,195.86v-8.38h1.74v8.32c0,1.94,1.06,3,2.83,3s2.82-1.1,2.82-3v-8.32h1.76v8.38a4.58,4.58,0,1,1-9.15,0" transform="translate(0 0)"/><path class="cls-2" d="M485.3,200.2V187.48h4.45c3.22,0,6,2.2,6,6.39s-2.85,6.33-6.08,6.33Zm4.36-1.56c2.35,0,4.32-1.58,4.32-4.77S492,189,489.69,189h-2.63v9.6Z" transform="translate(0 0)"/><rect class="cls-2" x="498.21" y="187.48" width="1.79" height="12.73"/><path class="cls-2" d="M289.79,223.54V210.81h4.45c3.23,0,6,2.2,6,6.39s-2.85,6.34-6.07,6.34Zm4.36-1.57c2.35,0,4.32-1.58,4.32-4.77s-1.93-4.83-4.28-4.83h-2.64V222Z" transform="translate(0 0)"/><rect class="cls-2" x="302.7" y="210.81" width="1.79" height="12.73"/><path class="cls-2" d="M314,218.33v5.21H312.2V210.81h4.63a3.76,3.76,0,1,1,0,7.52Zm2.55-1.58a2.19,2.19,0,1,0,0-4.36H314v4.36Z" transform="translate(0 0)"/><polygon class="cls-2" points="322.9 223.54 322.9 210.81 330.63 210.81 330.63 212.44 324.66 212.44 324.66 216.35 330.08 216.35 330.08 218.01 324.66 218.01 324.66 221.9 330.63 221.9 330.63 223.54 322.9 223.54"/><path class="cls-2" d="M337,218.33h-1.9v5.21h-1.78V210.81h4.79A3.69,3.69,0,0,1,342,214.6a3.56,3.56,0,0,1-3.09,3.6l3,5.34H339.9Zm.78-1.58a2.19,2.19,0,1,0,0-4.36H335.1v4.36Z" transform="translate(0 0)"/><path class="cls-2" d="M344.24,219.19v-8.38H346v8.33c0,1.93,1,3,2.83,3s2.81-1.1,2.81-3v-8.33h1.76v8.38a4.57,4.57,0,1,1-9.14,0" transform="translate(0 0)"/><path class="cls-2" d="M366,223.54l-.16-1.8a4.54,4.54,0,0,1-4.07,2.06c-3.2,0-6.17-2.33-6.17-6.64a6.27,6.27,0,0,1,6.29-6.62,5.65,5.65,0,0,1,5.63,3.84l-1.59.68a4,4,0,0,0-4-2.91c-2.27,0-4.5,1.64-4.5,5s2.16,5.05,4.43,5.05a3.62,3.62,0,0,0,3.93-3.33h-4.41v-1.57h6.08v6.23Z" transform="translate(0 0)"/><rect class="cls-2" x="370.14" y="210.81" width="1.79" height="12.73"/><path class="cls-2" d="M382.58,220H377l-1.34,3.56h-1.88l5-12.73h2l5.05,12.73H384Zm-5-1.63H382l-2.21-5.71Z" transform="translate(0 0)"/><path class="cls-1" d="M299.19,82.09a.08.08,0,0,1-.08-.06L298,79.14h-4.85L292.1,82a.1.1,0,0,1-.09.06h-2.1a.09.09,0,0,1-.08,0,.11.11,0,0,1,0-.08L294.4,70.2a.09.09,0,0,1,.08,0h2.31a.09.09,0,0,1,.08,0L301.45,82a.11.11,0,0,1,0,.08.09.09,0,0,1-.08,0Zm-1.93-5-1.66-4.47-1.67,4.47Z" transform="translate(0 0)"/><path class="cls-1" d="M305,82.17a1.19,1.19,0,0,1,0-2.37,1.19,1.19,0,1,1,0,2.37" transform="translate(0 0)"/><path class="cls-1" d="M309.62,82.09a.08.08,0,0,1-.08-.09V70.24a.08.08,0,0,1,.08-.09h4.17c3.47,0,5.8,2.41,5.8,6a5.57,5.57,0,0,1-5.82,6Zm4.08-2c1.76,0,3.64-1,3.64-4s-1.87-4-3.62-4h-2v7.94Z" transform="translate(0 0)"/><path class="cls-1" d="M322.34,82.17a1.19,1.19,0,0,1,0-2.37,1.19,1.19,0,1,1,0,2.37" transform="translate(0 0)"/><path class="cls-1" d="M334.92,82.09a.09.09,0,0,1-.09-.09V74.12H332.1A.09.09,0,0,1,332,74V72.56a.09.09,0,0,1,.09-.09,2.88,2.88,0,0,0,3-2.12.1.1,0,0,1,.09-.07H337a.09.09,0,0,1,.09.09V82a.09.09,0,0,1-.09.09Z" transform="translate(0 0)"/><path class="cls-1" d="M344.94,82.36a4.18,4.18,0,0,1-4.52-3.76.09.09,0,0,1,.07-.09l2.12-.44.05,0a.16.16,0,0,1,0,.07,2.15,2.15,0,0,0,2.22,2.17A1.92,1.92,0,0,0,347,78.45a1.81,1.81,0,0,0-2-1.83,2.3,2.3,0,0,0-1.05.19h0a.1.1,0,0,1-.08,0l-1-1.6a.09.09,0,0,1,0-.11l3-2.71H340.9a.11.11,0,0,1-.09-.09V70.37a.1.1,0,0,1,.09-.09H349a.09.09,0,0,1,.09.09v1.8l-3,2.68a3.51,3.51,0,0,1,3.34,3.62c0,1.93-1.52,3.89-4.44,3.89" transform="translate(0 0)"/><path class="cls-1" d="M356.68,82.36a4.31,4.31,0,0,1-3.78-1.94,7.47,7.47,0,0,1-1.06-4.23A7.44,7.44,0,0,1,352.9,72a4.63,4.63,0,0,1,7.55,0,7.44,7.44,0,0,1,1.05,4.23,7.47,7.47,0,0,1-1.05,4.23,4.32,4.32,0,0,1-3.77,1.94m0-10.27a2,2,0,0,0-1.72.83,5.23,5.23,0,0,0-.81,3.27,5.32,5.32,0,0,0,.81,3.26,2.2,2.2,0,0,0,3.44,0,5.31,5.31,0,0,0,.79-3.26,5.35,5.35,0,0,0-.79-3.27,2,2,0,0,0-1.72-.83" transform="translate(0 0)"/><path class="cls-1" d="M368.8,82.36c-2.63,0-4.39-1.39-4.39-3.46a3.1,3.1,0,0,1,2-2.86,3,3,0,0,1-1.73-2.65c0-2,1.73-3.38,4.12-3.38s4.14,1.42,4.14,3.38A3,3,0,0,1,371.21,76a3.18,3.18,0,0,1,2,2.86c0,2.07-1.78,3.46-4.41,3.46m0-5.38c-1.43,0-2.08.88-2.08,1.7s.65,1.69,2.08,1.69,2.1-.85,2.1-1.69-.66-1.7-2.1-1.7m0-5A1.64,1.64,0,0,0,367,73.51,1.84,1.84,0,1,0,368.8,72" transform="translate(0 0)"/><path class="cls-3" d="M115.43,202.41V26a88.24,88.24,0,0,1,0,176.46" transform="translate(0 0)"/><path class="cls-4" d="M115.48,202.36V26a88.19,88.19,0,0,1,0,176.36Z" transform="translate(0 0)"/><path class="cls-1" d="M112.67,26V202.41a88.24,88.24,0,0,1,0-176.46" transform="translate(0 0)"/><path class="cls-5" d="M112.62,26V202.36a88.19,88.19,0,0,1,0-176.36Z" transform="translate(0 0)"/><path class="cls-2" d="M114.05,0A114.18,114.18,0,1,0,228.1,114.18,114.11,114.11,0,0,0,114.05,0m0,225.6A111.42,111.42,0,1,1,225.34,114.18,111.35,111.35,0,0,1,114.05,225.6" transform="translate(0 0)"/><path class="cls-6" d="M143.7,85.62l.08-.24c-2.47-1.53-2.66-.79-5.16-.28-.47.1-1.37-.48-1.62,0,1.27,2.9,3.68.5,6.7.48m40.37-7.11h0c0-.06-.16-.05-.2,0-1.8,2.86-4.9,6.15-8,7.54-.85.38-4.72,1.82-4.77,2.6,2.16,2.61,12.42-6.42,13-10.1m-48.56,7.58h0l.51-.44c0-1.56-5-8.94-6.15-9.47l-.08.2c1.24,1.68,3.93,9.65,5.72,9.71m-6.23,25.61h0c0,.73.53,4.46,2,3,.91-.93-1-1.39-1.34-1.86-.21-.29-.26-1-.63-1.14m16.87-13.06h0c-1.2.66-2.88,1.12-4.18,1.69a69.91,69.91,0,0,0-8.28,4.31c-.82.5-1.69,1-2.56,1.38-.33.15-.81.22-1,.55,0,0,0,.2.05.16,2.27-.41,13.75-4.07,15.92-5a2.88,2.88,0,0,0,1.46-1.15,1.44,1.44,0,0,0-1.38-1.93m16.91,2.17h0a1.42,1.42,0,0,0-.55.39v.32c1,1,6.6,1.67,7.09.51-1.08-.4-2.92-.39-4.09-.67a7,7,0,0,0-2.45-.55M175,82.66h0c2.39-1.69,5.82-5,6.27-8a.17.17,0,0,0-.2-.07c-1.53,2.48-3.19,5-5.71,6.55-.6.37-3.94,2-3.94,2.48,0,1.6,3.14-.63,3.58-.94M132.47,97.89h0c1-.33,3.14-2.69,2.37-3.71h-.16c-.31.31-2.86,2.71-3,2.76-.41.16-.8,0-1.22,0-.08.06-.07.12,0,.2a1.55,1.55,0,0,0,2.05.75m-4.26,1.66h-.55a1.26,1.26,0,0,0,.4,2.28,2.85,2.85,0,0,0,.39-2.09Zm9.62-9.63h0a19.91,19.91,0,0,0,2-.79l0-.12c-2.44-1.39-4.15,1-6.46,1.42l-.12.31c2.64,2.16,2.35,0,4.57-.82m46.32,15.19h0c-.45.47-.94.9-1.42,1.34l-.67-.35c-3.05,3.26-.87,3-1.22,5.28-.27,1.69-2.2,3.35-.59,5.06l.08,0c.09-.09.56-2.75.78-3.28,1.33-3.14,3.3-3.93,3.31-7.93,0-.1-.2-.1-.27-.08M123.49,62.49h0c-1.36.74,1.23,4.23,1.37,4.26a.14.14,0,0,0,.12-.12c-.22-1.25-.23-3.27-1.22-4.1Zm59.83,51.1h0c1.27-.48,3.54-5.19,3.55-6.59l-.2-.07c-1.32,2.07-3.37,4-3.47,6.58Zm-58.14-6.82h0c-.93-.21-2.2-.94-2.72.47,0,2.12,3.28.19,4.29,0,.36-.44-1.36-.39-1.57-.43M126,72.12h0c-1.36,2.21-.51,2.13-1,3.94-.21.8-1.58,2.92.2,3.16,1.33-1.06.39-4.83.95-7Zm4.29-9.51H130a6.8,6.8,0,0,0-1.34,4.62c.06.08.15.13.24.07a26.35,26.35,0,0,0,1.69-4.22Zm-6.54,37.13h0c-2.21.26,1.18,3.28,1.22,3.36.21.33.47,1.43.83,1.54l.08-.16a4.51,4.51,0,0,1-.28-1.26c-.19-.82-.62-3.62-1.85-3.48m5.09-38.48h0l-.52-.47a12.66,12.66,0,0,1-1.77-.16l-.16.32c1.5,2.12,1,.8,1.58,3.47l.19,0a4.89,4.89,0,0,0,.68-3.2m1.73,5h0C131.19,65.59,132,65,132,64a.73.73,0,0,0-.43-.36l-.12,0c-.82,1.22-.87.7-1.14,2.41ZM143,83.8h0c1.28.39,3-1.35,3.31-2.49l-.2-.12a9.43,9.43,0,0,1-2.88,1.5c-.5.11-.91-.22-1.38-.15l-.08.27c.43.35.67.82,1.23,1m-10.17,75.65h0c-3.4,2.08,2.55,4.36,3.07.51a3.05,3.05,0,0,0-2.25-.87c-.25.18-.56.2-.82.36m14.5-31.61h0c-.72.39-6-.71-9.73,2.13-.86.66-1.28,1.74-2.13,2.41-.36.28-2,1.6-2.05,1.89.28.22,1.35.3,1.34.56-.08,1.31.06,2.84-.12,4.1.49.4,1.48-.28,1.93.31.13.18.62,2.1,1,2.77,1.34,2.2,3.62,4,4.73,6.27a1.54,1.54,0,0,1,.19.91c-.44,2.7-3.94,5.85-4,6.24l.2.07c1.9-1.16,4.51-4.19,5-6.43.24-1.15-1-1.93-1.62-2.72a30.29,30.29,0,0,1-4.1-6.67c-4.33-10.53,6.94-11.51,14.23-11.56l.08-.16a33.8,33.8,0,0,0-4.93-.12M132,158.78h0c.47-.3,1.1-.25,1.53-.63v-.08c-4.57-2.95-5.13,2.92-2.48,1.58.39-.2.58-.64.95-.87m26-5.88h0c-.21-.65-.39-3.58-.83-3.59a2.06,2.06,0,0,1-1.14.63c-2.54-3.77,5.84-15.32,5.92-16.18l-.16,0a5.09,5.09,0,0,1-1.7,1.26l-.15-.19a16.85,16.85,0,0,0-.4-5.1l-.12,0c-.4,3.19-.2,5.89-1.34,9s-2.58,5.31-3.43,8.41c-.21.79-.63,5.2.51,5.25.95-.77.68,1.76,1.35,1.85l.47-.23c1.19,1.29,3.3,4.77,5.2,5.09l0-.16a16.13,16.13,0,0,1-4.22-5.92m-24.32,3h0a.1.1,0,0,0,0-.16c-2.21-1.32-1.55-1-3.9-.32-.54.16-1.38-.2-1.77.28-.67.83.05,1.61.83,1.94a15.91,15.91,0,0,1,1.61-1.27,15.93,15.93,0,0,1,3.23-.47m20.62,16.26h0c-.1,4.05,3.93.49,5.08,0s3.35-.54,4.38-1.38.66-4.79.59-6c0-.44-.2-2.93-.63-2.84a30.78,30.78,0,0,1-.08,6.07c-.11.56,0,1.51-.43,1.9-2.2,1.82-7.09-.26-8.91,2.29m5.16-2.41h0l0-.2c-3.24-2-2.64-.47-4.3-.79-.33-.06-.66-.29-1-.23a1.71,1.71,0,0,0-.87,2.44,2.58,2.58,0,0,0,1.18-.39c1.72-.77,3.24-.49,5-.83m22.71-27.9h0c-3.08-.38-7.57-6.49-7.69-6.51-.56.62-.86,3.57-2.72,6-2.41,3.09-8.35,2.67-8.75,7.65,1.56,2,2.73,4.15,4.3,6.16.77,1,2.33,1.11,2.88,2.33.78,1.75-.18,2.42-.24,3.87s.66,1.57.67,2.24c-.65.66-1.25.4-2,.6l-.12.31c.16.57,2.3,3.48.83,3.79-.34.08-1.07-.49-1.26,0,.32,1.6.3,3,.51,4.62a2.54,2.54,0,0,1-1.34,0c-.62.59-.7,2.19-2.09,2.09-4.76-.35-2.81,1.52-6,2.25-.7.16-1.07-.31-1.7-.32-.42.42-.4,1.32-.94,1.46-1.28-1-.6-1.73-.79-2.84-.34-.18-.75,0-1.11-.12s-.54-.56-.9-.55l-.2,0c-.47.14-.46.88-1,.95-1.17-1.79.5-2.38.52-3.36l-.28-.23h-.24c-.56.56-.62.37-.9,1.26l-.28.12c-1.51-1.76-.11-2.74.75-3.83.57-.72,1.08-2.8,2.68-2.25,1.75.6,1.61-.31,2.64,0,.44.13,1.81,1.1,2.37,1.38s2.41.91,2.6.12c.3-1.27.6-7.33,0-8.41s-2.75-2.2-3.75-3.23c-.37-.39-1.67-2.31-2-2.33-.2.24-.45.65-.82.59a5.66,5.66,0,0,1-.4-1.74l-.23-.11a1.25,1.25,0,0,1-.79.43c-.29-.44-.2-1-.36-1.5-1.38-4.38.93-8.06.67-9.11-.09-.41-1.58-.79-2-1-1.37-.58-4.2-2.44-5.52-2.53l-.11.4a10,10,0,0,1,.71,2,27.61,27.61,0,0,0,3.34,5.05c.18.24.74.79.75,1.07.08,1.27-.09,3.38-1.49,4-1.08.46-1.4-.49-2.21-.47-.16.08-.18,1.31-.28,1.58a8.16,8.16,0,0,1-1.77,2.52h-.2c-.23-.27-.52-.76-.95-.59-.14.27-1.08,3.36-1.77,2.68-.28-.48-.4-1.29-1.1-1.3-.45.42-1.34,3.81-1.42,4.58a.74.74,0,0,1-.51.27c-.27-.18-.63-.15-.91-.31-.49-.28-.72-.93-1.34-1-.37.27-1.06.07-1.5.16-.49.43-.33,1.95-1.73,2.17-.33.05-1.88,0-2.09.12-.54.25-.3,1-1,1a5.33,5.33,0,0,1-.64-2.37c-.07-.11-1.1-.51-1.34-.67s-.27-.6-.63-.67c-1.41.81-.42,1.93-1.38,1.93-2.78-2.62.49-3.53.63-4.11a1.15,1.15,0,0,0-.74-.31c-.41.25-1.15,1.28-1.46,1.3-1.16-2,.41-2.85.47-3.16.59-2.78,2.27-1,2.88-1.41a4,4,0,0,1,3-.79c.45,0,.71.65,1.07.82a11.71,11.71,0,0,0,2.52,1c.69.14,1.48-.53,1.93-1,6.51-6.5,3-6.06-.83-12-.51-.81-1.12-2.8-1.53-3.24a7.26,7.26,0,0,1-1.86.08l-.15-.4a14.34,14.34,0,0,0,.31-4c-.54-.32-1.75-.24-1.81-1.07.85-.79,1.84-1.44,2.72-2.24,1-1,1.58-2.14,2.84-3a10.53,10.53,0,0,1,4-1.54c5.3.06,10.63-.55,15.93-.56l.16-.31a11.08,11.08,0,0,1-2-2.09l0-.28.31-.35c1.76,0,5.2,3.44,5.52,3.51l0-.12a10.66,10.66,0,0,0-7.29-4.54c-.92-.19-5.31.58-5.4-.55l.39-.55c-.26-.32-4-.29-4.1-1.27a6.1,6.1,0,0,0,1.11-.63c-.21-.87-4.27,0-4.38-1.06a6.54,6.54,0,0,1,1.15-1.07v-.2l-.32-.11c-.56.4-3.9.31-4-.52.25-.21.54-.43.55-.79-1.21-1-1.33,0-2.36-.19l-.16-.24c.23-1,.9-1,1-1.5-.56-.85-2.27.84-3-.32.76-.89-.05-3.72-1.38-3.39-.49-.4,0-2.55-1.15-2.68-.5.34-1.54.43-1.89.9-1.32,1.85,2.46,3.43,2,6a3.73,3.73,0,0,1-1.49,2.81c-.55.28-1.46.32-1.5-.48.27-.19,1-.86.79-1.26a7.22,7.22,0,0,1-1-1.58c-.54-1.65.09-4.76-2.13-5.52-1-.37-1.52.66-2.32,1s-1.17-.46-1.82-.28-.77,1-1.38,1l-.23-.31c0-1,.94-3.45,2-3.83s2.49,1,2.64.08c-.5-.71-.61-1.7-1.18-2.45-.46-.59-1.34-.67-1.74-1.3-.58-.93.47-1.09-1-2.17-.3-.22-.77.13-.91-.48-.33-1.45,3.91-.49,4.1-.35,1.7,1.25.5,4,2,5.68,1.23-.32-1.17-4.26-.87-5.25a2.24,2.24,0,0,0-.59-1.14c-.27-.08-.61-.25-.67-.55,1.67-1.84,2.42.38,3,.55,2.62.7.37,3.22.55,5.21,0,.31.29,2.17.64,2.17a10.53,10.53,0,0,0,2.17-.63l.15-.28a3.17,3.17,0,0,0-1.14-.27l-.08-.16a8.84,8.84,0,0,0,.43-4.54c0-.17.35-1,.36-1.42-1-.62-1.63-1-1.62-2.25l.28-.24c.27.07.5.25.75.32,1.43.38,2.59-4.19,2.6-4.66A3.13,3.13,0,0,1,132.15,90c1-.12,2,0,2.65-.86,0-1-2-5-2.6-6s-3.23-9.2-5-9.24c-1.18,1.6.13,5.23-1.62,6-1,.46-3.2,1.76-3.35-.43a.64.64,0,0,1,.52-.24c1.52,1.12,1.63-4.59,1.77-5.17s.78-1.22.94-1.93c.49-2.08-1.21-3.64-1.81-5.29-.13-.37.06-.78-.08-1.14-.2-.53-.76-.84-.94-1.39-.13-.37.06-.84-.16-1.18s-1.21-.17-1.22-.91c3.76-4,3.85,4.36,5.24,5.84a.54.54,0,0,0,.23-.19c.19-1.07,1-4.72,0-5.49a5.1,5.1,0,0,1-1.22-1.1l-.67-.16-.19-.24c.15-1.24,3.61-.86,4.22-.55s.62,1.07,1.21,1.46a2.84,2.84,0,0,1,1.23,0c.66.26,1.84,2,1.61,2.8s-2.69,3.63-3.54,5.09c-1.67,2.85,6,10.58,8.59,11.68a20.26,20.26,0,0,0,2.8,1c.36-.1.14-.55.55-.71.39.09.72.34,1.1.43.68.16,6-2.67,6-2.8.23-.6-.1-.67.48-1.42l.24-.08c1,1,5.37-.42,5.35-1.22a1.9,1.9,0,0,1-.11-1.5l.2-.16c.66,0,1.05.57,1.81.39,1.1-.25,4.18-2.12,4.25-3.35l-.39-.12c-.74.7-5.54,1.39-5.8,0l0-.08c.86-.5,4.28-1.62,4.34-2.8l-.16-.12C157,69.08,152.26,73,148.2,74c-3.16.79-5.42-2.58-3.24-3.12.57.31,1,1.48,1.62,1.54,4.16.4,7.43-2.19,10.8-4.22v0l-.16-.16c-2.75.11-4.51-2.19-6.69.6-.39.49-.69,1-1.11,1.49l-.31,0a3.64,3.64,0,0,1-.44-2.33c0-6.47,3.06-4.24,5.13-5,.35-.14.36-.55.55-.83.3-.46,1.24-.55,1.3-1.15C155,60,155,57,153.32,55c-.32-.4-1-.54-1-1.14,1-.69,2.5,0,3.23.79.49,0,1.76-1,1.89,0a1.44,1.44,0,0,0,.24,2.32c2.32.2.45-2.09.43-2.68.82-.69,1-.06,1.62-.35.16-.08,1-1.5,1.46-1.9,1.65.16.12,2.06,3,2v0l.36.32c-.09,1-1.71,1.34-.2,2.56,2.17.2.93-1.64.91-2.44.56-.47,1.29-.11,1.93.08.18-.07,3.44-2,3.23-.4-1.78,1.38-3.5,4.43-3.11,6.75,1.07.82,3.32-.33,4.53-.12.75,1.32-1.36,3.76-1.34,3.95,1.71,2,1.34,3.51,1.66,5.92.05.39.57.55.59,1.14-.13.12-1,.89-1.07,1s-.31,4.21-.27,4.34A8.68,8.68,0,0,1,172,79c-.49.46-.75,0-1.26,0-1.14.71-1,2.56-.91,3.68l.44.35c.95-.65,2.22-1.06,3.22-1.7,3.61-2.27,5-4.27,7.14-7.73.37-.61.63-1.23,1.46-1.23,2.44,1.91-1.58,8.76-3.2,10.38l0,.08.19.12c.47-.58,5.09-5.86,5.21-5.88.76.27.86,1.24.86,1.93,0,4.08-3.47,6.66-6,9.28-.4.41-2.47,1.61-2.52,2l.28.08a15.18,15.18,0,0,0,3.58-2.65c.94-1,3.79-4.12,5-4.14.61,0,.78,1.35.67,1.78-1.41,5.62-7.8,9.63-13.05,11.13-.24.07-1.46.46-1.5.71l.16.08c1.12-.23,2.16-.5,3.27-.75,1.61-.38,3.69-2.35,5.33-2,1.2,1.54-.26,2.34-1.19,3.32-2.63,2.77-7,2.41-10.44,3.08l-.08.19c.91.22,1.74,0,2.44.71,0,2.57-4.52,1.76-6.15,1.94-.38.35-.26.87-.67,1.18-1,.76-2.37.52-3.47.75l-.16.48c3.71,8.73,6.9,8.25,11.52,14.28,3.93,5.14,2.76,11.27,6.82,16.5.42.55,1,.79,1.49,1.26,2.26,2.34,4.07,1.93,7,1.58a3.81,3.81,0,0,0,2.52-2.21c3.34-6.53-4.11-11.11-8-14.88-1.26-1.23-1.62-3.65-1.89-5.21-.14-.77-1.7-2-1.27-3.27.29-.87,1.15-2.44,1.31-3.08.21-.87-1.4-2.15.35-4.38.48-.61,1-.67,1.38-1.54.07-.18.13-.75.36-.79.07,0,.25,0,.31,0a2.73,2.73,0,0,1,.12.75l.32.12c.29-.47,1.11-1.66,1.69-1.7a23.62,23.62,0,0,1,1,3.31l.23.12c.28-.31.68-1.3,1-1.34,1.17,1.76-.33,3.05-.08,3.83,1,3-1.28,2.67-2.6,4.22-1,1.23-1.31,5.37-.95,6.91.85,3.61,12.1,9.23,8.67,17.17-1.69,3.92-6,4.48-9.73,4M161.8,172.36h0a9.54,9.54,0,0,0-3.31,1.77c-1.9,1.87.47,2.5,1.42,1.93.75-.45,1.81-2.19,2.44-2.95.29-.36.86-.57,1-1.07l-.2-.12a6.64,6.64,0,0,1-1.3.44M161,60.59h0c.53-.61.23-6.66.23-7.18,0-.07-.15-.16-.23-.12-1.18,1.93-.32.61-1.7,1.27l-.08.35c1.2,2.64-2.84,4.29-2.71.24l-.28-.12a1.53,1.53,0,0,1-.87.43c-.26-.25-.6-.41-.87-.67-.05,0-.15.05-.15.12.26,1,1.22,2,1.54,3.12.81,3,.64,3.11,5.12,2.56m10.05,1.47h0l-.16-.12a7.09,7.09,0,0,1-2.87,2.4c-.54.17-2.14.08-1.86-.86.15-.49.58-.72.75-1.15h0l-.12-.16c-.53.14-1.77,1.21-1.61,1.82.76,2.87,5.63.74,5.83-1.93m-9.54-.44h0c-1.77,0-3.54.08-5.32.08-1,0-1.57,1.78-1.93,1.81-2.6.26-4.28-.59-4.89,2.69a6.6,6.6,0,0,0,.08,2.13c.25.37.71-.71.79-.83a7,7,0,0,1,3.74-3c1.67-.63,1.26-1,2.45-1.78s4.71-.68,5.12-.94a.12.12,0,0,0,0-.2m.32,23.8h0a.16.16,0,0,0-.2-.08c-.53.3-2.48.5-3.31.83-2.91,1.13-5.81,2.24-7.53,5a7.09,7.09,0,0,0-.12,6.83c.23.36,1.24,1.92,1.78,1.46-2.92-10.4,9-13,9.38-14.09m4.57,13.34h0c1.83,2,12.19-1,13.09-3.52,0-.08-.17-.1-.24-.08-1.18,1.14-6.17,3-7.84,3-.28,0-5-.55-5,.64m18.37-14h0c0-.06-.15,0-.2,0a25.31,25.31,0,0,1-3.11,3.19c-4.43,4.45-9.87,4.66-11.55,6.28v.27c1.68,2.91,14.61-5.95,14.86-9.74M153.44,78h0c0-.07-.19,0-.23,0a4.78,4.78,0,0,1-3.87.67l-.12.28c.3.33.46.78.91.94.71.26,3.22-1.21,3.31-1.85m8.2-14.37h0c.29-.18,1.16-.18,1.22-.59l0,0h-.51c-.21.12-3.83.27-4.49.4l-.08.19.71.6c1.07-.1,1.17,1.62,2.36.86.54-.34.37-1.11.83-1.42m4.3,14.53h0c1.05-.81,1.34-2.27,1.69-3.48.12-.42.77-3.33.08-3.19-1.12,2.13-1.87,7.38-5.4,7.1-.65,0-.43-2.15-.51-2.6l-.16,0A48.27,48.27,0,0,0,160,81.27l.23.12c1.56-1.61,4-1.9,5.76-3.27" transform="translate(0 0)"/><path class="cls-6" d="M105.53,91.39c.36-.39,1.49-1.91.35-2a2.59,2.59,0,0,0-.63,2Zm.26,6.43h0c-1.11,1.09-2.82.91-2.89,2.79l.4.14c.18-.08,4.51-2.33,2.49-2.93m-.33,2.45h0c-.8.3-4.22,2.62-3.7,3.76l.32.15c1-1,4.11-1.72,3.66-3.8Zm-.12-6.86h0a2,2,0,0,0,1.31-1.57c-.08-.09-.23-.28-.37-.27-.36.31-1.52,1.08-1.26,1.65Zm-.52,9.84h0c-.9.89-5.28,2.63-4.32,4.48a3.74,3.74,0,0,0-1.3,1.76l.36.15c1-.92,4.93-1.59,4.89-3.39l-.48-.14a10.1,10.1,0,0,1-3.12,1.41l0-.19c.85-.76,5-2.4,4.28-4Zm-.79-5h0c.87-.74,2.35-1.16,2.42-2.58l-.35-.19-1.1.42-.08-.15c.5-.51,2.22-1.28,1.37-2.13H106c-.29.28-.73.37-1,.73l-1.34,3.78ZM97.92,112h0l.28.15c1.22-.48,5.5-1.53,5.44-3.32l-.28-.15c-2.16.81-4.13,1.38-5.44,3.32m4.39-14.7h0v0c.74-.53,1.67-5.39,0-5.65l-.23.24c0,1,.69,1.76.73,2.75a.62.62,0,0,0-.23,0c-.1-.16-.62-1.17-.93-.84-.42.76.33,2.55.47,3.38Zm1.18-5.68h0a3.93,3.93,0,0,0,0-2.6h-.28l-.34.45c0,.59-.19,2.07.64,2.15M96.82,117.8h0c-.15-.2-.23-.41-.48-.51l-.12,0a24.76,24.76,0,0,1-3,3.46c0,.24.31.33.48.35.81-.45,3.13-2.39,3.11-3.35m-2.2-6.7h0a19.78,19.78,0,0,0-.3,2.45l.28.07.08,0c.94-2,1.9-1.8.93-4-.17-.38-.2-1.07-.69-1.2-1,.85.41,2,.45,2.87l-.23.08Zm-2.3,25.27h0a44.5,44.5,0,0,0-.85,6.18c-.06,1.91-.45,3.85-.54,5.77s-.72,3.62-.78,5.43c0,.31-.19,1.09.1,1.22.45.21,2.16-1.32,2.37-1.75s.13-12.33,0-12.83.13-3.94-.32-4m4.36-26.54h0a1.34,1.34,0,0,0,.33-1.19l.47-.09c.35-.09.79-1.63,1-2a44.66,44.66,0,0,0,2.46-4.75,7.87,7.87,0,0,0,0-1.19c1.47-.54,1.12-4.54-.1-4.61-.64,1,.17,3.12.17,4.29h-.24c-.06-.51-.25-1.33-.85-1.4-1,1.55-.11,2.33-.19,4.07l-.27,0c0-.63-.18-1.36-.83-1.6-1.14.85-.06,2.6-.3,3.84h-.28c0-.43-.24-1-.74-1-1.37,1.16,0,1.8-.28,3.08l-.24,0a2.53,2.53,0,0,0-.65-.94c-1.44.33,0,3.35.51,3.39m-48.6,33.43h0l-.37-.43h-.27a5.08,5.08,0,0,0-.85,2.43c2.82.29,1.43-.46,1.49-2m48.69-22.54h0c-.28.81-1.78,1.06-1.89,1.86,0,.11.2.21.29.27,1.12,0,1.67-.77,2-1.74l-.25-.39Zm5.75-9.17h0c-.62-.2-5.34,1.51-5.86,2.26,0,.15.2.4.4.31,1.54-.71,3.65-.36,4.86-1.21.2-.15,1.09-1.2.6-1.36M93.59,127.9h0c.48-.45,1.27-.7,1.5-1.38.18-.53-.6-4.61-1.25-4.71-.26.42-1.06,6.06-.25,6.09m2.24-12.29h0l-.16,0c-.4.44-3.08,3.83-3,4.14l.44.3c.84-.35,3.67-3.48,2.7-4.4m-.69,6.17h0a2.52,2.52,0,0,0,1.73-2,.31.31,0,0,0-.28-.23c-.32.32-2.37,1.73-2,2.06ZM57.68,90.15h0c-.3.15-1.1,1.35-1.32.86,0-.12,3.58-4.9,1.9-6.28a8.62,8.62,0,0,1-1.56.51c-.7-.34,1-1.34,1.15-1.53a5.89,5.89,0,0,0,1.41-3.82c-.53-.45-1.39.06-1.44-.64.54-.54,2.15-1.76,2.15-2.54l-.12,0c-2.66.78-1.75,0-3.46-.08-1.48,1.6-.16,2-.37,3.12l-.23.13-.72-.58a8.49,8.49,0,0,0-.9,3.77c.13.43.71,2.16,0,2.21-.2-.31-.41-.91-.85-.92-2.11,2.26-4.48,9.48-1.16,11.63,2.06,1.33,6.37-4.9,5.51-5.81M54.62,131h0a2.47,2.47,0,0,0,0,3.28l1.77-.08c.73,0,.86-1.9.54-2.42s-1.65-.8-2.31-.78m7.12-63.4h0c.67-.78,2.26-2.08,2.26-3.13l-.44-.14c-.62.42-1.52,2.15-1.76,2.25l-.28-.11-.05-.2a11.11,11.11,0,0,0,1.44-2.8l-.36-.19a10.11,10.11,0,0,0-2.48,3.57,2,2,0,0,0,1,.41.93.93,0,0,0,.64.34M76.22,78.52h0c5.46,2,7.89-3.35,10.25-5.45a12,12,0,0,1,2.79-2c.37-.17,1.24-.25,1.32-.74-1.31-1.15-3.62-1.63-4.71-2.57-.79-.69-3.31-9.94-3.17-11,.57-4.38,3.26-7.42-1.6-11.89-6.94-6.36-2.47,7.54-4.14,8.74-.28.2-2.42,0-3.53.83-3.92,2.86-2.06,5.25-1.22,8.83.21.92-.27,3.22-.16,3.48l.32.07c2.18-2.2-2.48-7.49.31-10.39.44-.45.55-1.08,1.11-1.48a5.75,5.75,0,0,1,3.62-.56c.56.19-.23,2.38-.09,3.08.19,1,1.16,3.21-.43,3.56-1-.76-.14-1.31-.37-2.36-1-.72-1.39-.16-2.41-.18-3.38,2,3.7,8.28,3.7,8.29-1.13,1.25-1.72,0-2.92,0-.79.77.46,6.14,5.63,4.65.85-.24.9-.09,1.6-.71l.19.08.09.27c-2.43,2.52-5.37,4.62-8.15.58l-.19.13c.54,2,4.06,3.64,5.94,3.14,1.13-.3,3.85-2.13,4.21-2.15l.13.39c-1.5,1.59-1.93,4-4.67,4.25-7.26.57-7.8-6.23-8.91-6.55-1,1.78,3.28,6.87,5.46,7.7m7.88-10.8h0c-1.56-.39-1.6-.84-1.63-2.25,0-.32-.26-3.4.07-3.87.68.18,2,5.25,1.91,6ZM76,56.18h0a2.05,2.05,0,0,0-1.31-.29c-.47.31-1.13.17-1.2.9l.29.35c.66,0,2.18,0,2.22-1M62.37,74.45h0c.42.48,1.27,2.07,1.55,2.29,2.84,2.3,7,6.75,11,6.7.94,1.37.26,39.24.57,44.2.23,3.8-.82,10.49.08,14.09l.48.26c1-.2,1.81,0,2.8-.26,1.19-2.16-.92-40.54.3-47.37.35-2-.41-8.29.11-10.82,1.47-.94,3.79-.92,5.44-1.67a39,39,0,0,0,8-5.07c1.75-1.35,2.92-4.2.53-4.47C87,77.43,78.8,83.2,70.65,78.17c-2.5-1.54-4-4.21-6.05-6.14h-.24c-.77.74-2,.95-2,2.41M75.75,82h0c.29-.4.74-.19,1.1,0l.08-.16a1.5,1.5,0,0,1-.37-.63l.31-.24a3.92,3.92,0,0,1,1.07.17,3,3,0,0,0-.18.84l.31.11a1.07,1.07,0,0,1,.78-.46c.16.14.2,1.11.23,1.34l-.19.12a4.62,4.62,0,0,0-1-.17l-.19.44c.17.15.71.63.5.89a2.63,2.63,0,0,1-1.66.16L76.39,84,77,83.2,76.72,83c-.25,0-.46.2-.71.25-.24-.18-.28-1-.26-1.22m.93,51.49h0l.23-.16.91,0,.2.39a1.23,1.23,0,0,0-.29,1.07,1.6,1.6,0,0,0,.8.22,1.12,1.12,0,0,1,.17.59l-.27.24-.55.05-.12.16a6.9,6.9,0,0,1,.14,1.18c-.33.41-.84.24-1.29.11l-.13-.31a1.14,1.14,0,0,0,.33-1c-.61-.49-1.1.4-1-.85l.39-.2.43.1c.69-.45-.08-.89,0-1.54M98.31,65.11h0l.15-.36c-.79-.78.77-10.25.91-11.94a2.67,2.67,0,0,1,1.42-1.73c3.38-1.19,3.21,5.39,1.59,5.56l-.53-.73-.4,0c-1.51,1.29,1.11,3,2.39,1,1.58-2.4.91-7.73-2.88-7.2A2.35,2.35,0,0,0,99,50.76c-.65,1-2.16,11.51-2,12.84l.2.19a.46.46,0,0,1,.48.38c-.31.25-.91-.33-1.37.66a2.5,2.5,0,0,0,2,.28M56.72,75.88h0c1.43,3.21,8.37-4.87,6.17-8.07h-.16c-.55.64,0,1.7-.26,2.45-.16.4-3.3,4.74-3.75,5.18l-.28-.19c.46-1.77,1.58-2.11.34-4.51-.23-.42-.94-.5-1.05-.92l.43-.13c1.61.45,1,1.45,1.81,1.46.63-.81-.8-3.22-2-2.64-2.09,1-1.38,3.84-1,5.55.13.61-.46,1.31-.24,1.82m3.64-6.68h0c.15.41.06,1.39.66,1.41,2.18-2-2.57-4.55-2.15-2.71.68.37,1.19.52,1.49,1.3M41.23,115.78h0c.59-.21,12.32.17,14.47.07l.28.39a2.65,2.65,0,0,1-.88,1.24c-1.35,0-14.8-.2-14.87-.25l-.08-.32c.43-.43.41-.88,1.08-1.13m16.18,7.65h0c1,.51.59,3.17-.19,3.71-1.71,1.19-4.44-.71-5.06-.43-.4.18-.49.71-.93.77l-.13-.31c.5-.68.26-2.38,1-2.39,1.2,1.88,3.78,2.61,4.17.89.51-2.29-3.56-1.6-3.91-3.55-.7-3.84,1.63-2.64,3.61-2.37.49.07.84-.52,1.37-.54l.16.19a13.39,13.39,0,0,1-.25,2.89l-.43.21c-.47-.74-.54-1.74-1.43-2.14-.41-.19-1.79,0-1.8.55l0,.79c.65.68,2.78,1.2,3.83,1.73m.19,11.76h0a27.42,27.42,0,0,1,.85,3l-.27.28-.16,0c-1.09-.56-1.44-3.46-2-3.47-1.59,0-2.69.49-1.91,2.33.15.36.61.41.65.85a7.88,7.88,0,0,1-2.57.06c-.11-.22,1.69-5.68-.48-7.6.13-.69,1.38-.19,1.8-.48,1.37,0,3.48-.14,4.44,1,1.54,1.89-.54,2.84-.34,3.92m-8.11-13h0l-.28-.23a1.75,1.75,0,0,0-.37-.9,3.7,3.7,0,0,0-1.44-.64c-2.44-.38-2.41,5.39-.26,5.93,2.53.63,2-1.87,2.84-2,.3.58,0,2.27,0,3l-.31.12c-.81-.72-2.32.59-3.95-.34s-2-3.91-1.43-5.61c1.26-3.83,3.69-1.27,4.82-1.57.27-.07.45-.32.74-.38a.76.76,0,0,1,.17.48c-.33.57.38,2-.51,2.1m-3.64,9.63h0c0-.31-.63-.62-.66-1.16l.31-.29a44.06,44.06,0,0,1,5,.16c.44.55.26,1.06.08,1.7l-.2,0-.45-.93c-1-.22-1.89-.63-2.68.14.17,1.1-.55,1.61.41,2.44,1.2,0,.74-.79,1.43-.94l.21.19,0,1.93-.27.13a1.88,1.88,0,0,0-1.67-.56c-.37.6-.16,1.5-.27,2.18-.24,1.55,2.86,1.07,3.4.35.22-.28.15-.65.62-.68a4.83,4.83,0,0,1,.11,1.54c-.61.85-6.12.71-6.15.06,1.21-.65.75-5.08.73-6.3m-8.08-11.93h0c1-1.72,3.42,0,4.87-.9l.28,0c.43.5.18,1.73.13,2.37l-.32.08c-.79-1.21-3-2.2-4.08-.85-.14,3,4.27.78,4.33,3.18.05,1.57-.6,3.77-2.67,3.57-.77-.07-1.46-.7-2-.74-.65-.06-1.07.55-1.64.7l-.08-.15c0-.28.39-3,.75-3,.52.76,1,1.71,1.9,2,.64.24,2-.13,2-.95.09-3.54-5.8-1.62-3.55-5.37m-1.14,10.56h0c.4,0,2.11-.18,2.18.39-2,2.14.8,3.75,2.78,2.82.54-.25.44-.95.44-1.47,0-.72-.11-.81-.62-1.29l0-.28a9,9,0,0,1,2-.16l.2.19c.19.24-.13.52-.22.71-.41.92-.15,5.16.06,6.16a1.41,1.41,0,0,1,.37.59l-.15.12-1.94-.08,0-.23.46-.57c.05-2,.72-3-1.84-3-3.35.07-2,1.37-1.73,3.79-.8.75-2.62.26-1.6-.72a47.4,47.4,0,0,0,0-5.84c0-.32-.6-.55-.65-1Zm6,17.63h0a14.62,14.62,0,0,1-2.84.06l-3.47.08-.2-.34,0-.09a3.82,3.82,0,0,0,.78-.61c.09-1.84.11-3.68.07-5.52,0-.33-.56-.62-.62-1l.24-.16a7.15,7.15,0,0,1,1.85,0l.13.19a6.36,6.36,0,0,0-.4,3.33c.55,2.53-1.64,3.51,2.28,3.42.62,0,1.24.08,1.65-.51.25-.37.24-1.24.8-1.28.3.48.24,2.1-.3,2.41m10.61-4.9h0c-.37.65-.13,2.94-.11,3.71,0,.29.45.55.49.94l-.19.16c-.52,0-4.69.1-4.81,0-.35-.2.33-1,.24-1.34-.21-1-2.89-1.22-2.82.5l.4.58a10.48,10.48,0,0,1-2.63.26.57.57,0,0,1-.21-.4c1.75-1.26,2.58-7.18,3.79-7,.33,0,.85-.06,1,.37.33,1.47,1.28,6.63,3.11,6.64.23-.18.5-.31.61-.6s-.15-3.61-.16-3.95.17-1.09,0-1.45-.53-.51-.8-.74l0-.31a1.11,1.11,0,0,1,.86-.26c2.27,0,3.24,5.21,4.66,5.34l.11-.16c0-1.27,0-2.6-.09-3.87,0-.34-.7-.42-.61-1,.71-.2,1.69-.55,2.29,0-.1.25-.49.59-.5.84,0,.93.2,6.29-.28,6.56-1.38.77-3.31-4.75-4.33-4.8m40.14-10.46h0c.57,3.55.19,7.75.26,11.28a33.59,33.59,0,0,0,0,4.14,15.9,15.9,0,0,1,0,4.82c-.55,2-1.85,2-2.19,2.65s0,1.24-.11,1.82c-.7,4.37,2,16.25,1.74,17.73-.39,1.92-5,3.23-6.61,2.67l-.12-.15c-.07-1.73.66-3.61.71-5.35.12-4.29,1.46-8.63,1.56-13,0-1.7.76-3.51.79-5.23.05-4.09,1.23-8.3,1.25-12.34,0-1.71.75-3.6.79-5.27a123.48,123.48,0,0,1,1.38-13.85c.14-.82-.8-2.47-.66-3.22s.84-1,1-1.64c.31-1,2.2-24.09,2.24-26.34,0-2.66.34-9.78,1.07-12,.55-1.71.19-5.27.54-7.24a37.5,37.5,0,0,0,.53-4.71c0-.25.41-1.24-.11-1.3l-.71,0c-.22.29-1.61,12.31-1.63,13.57,0,2.75-.66,5.58-.67,8.31-.07,8.89-1.61,20.28-2.3,29.42-.14,1.85-.57,3.56-.58,5.46,0,3.68-1,7.49-1.09,11.19,0,1.64-.79,3.53-.75,5.16.11,4.47-1.51,9-1.58,13.49-.1,5.1-2.12,20.14-3.11,24.9l-.19.16c-7.85.36-12.4-3.43-21.08-1.18-1.16.3-5.13.71-5.62-.74a2.2,2.2,0,0,1,.21-1.38,35.21,35.21,0,0,0,1.26-10.26c0-.83-.09-7.26-.33-7.92s-.78-.29-1.1-1.44,1.13-15.69,1.24-18.34c.27-6.52,0-13-.21-19.5,0-.58-7.85-10.76-7.8-20.62a8,8,0,0,1-1.64-6.52c.54-2.39,2.1-4.33,2.92-6.58.7-1.9,1.38-4,1.92-6,.21-.8,1.37-1.48,1.56-2.53.26-1.45-1-3-.38-4.57,1-2.67,2.72-2.85,3.76-4.23.88-1.15,1.91-3.89,3.79-3.52l.2.28c0,1.1.14.83,1,1l.2.27c0,1.2-.88,1.54-1.16,2.52A2.43,2.43,0,0,0,63.84,68c.55,1.86-.2,2.44-.05,3.2h.08c.42.19,1.78-1,2.22-1.24A25.85,25.85,0,0,0,69,68.53c.66-.89,1.55-7.17,1.5-8.39a7.13,7.13,0,0,1-1.16-2.27,3.55,3.55,0,0,1,.47-2.26c.12-.29-.2-.59-.3-.82a17.53,17.53,0,0,1-.28-2.09c-.13-.5-.94-3.75-.88-4,.28-1.1,3.77-4.44,4.77-5.48s2.39-2.59,3.75-3,8.53,7.65,8.33,9c-.28,1.92-.67,3.73-1,5.63-.15.84.46,2,.26,2.64-.76,2.57.17,4.2,1,6.68a9.37,9.37,0,0,0,1,2.86c.37.47,1.6.78,2.15,1.1,1.12.63,2.18,1.35,3.28,2,.56.34,3.15,2.53,3.33,2.54a44.8,44.8,0,0,0,.64-6.69c-.21-.68-.68-.39-.59-1.64,0-.53,1.06-1,1.07-1.53,0-.92.18-1.77.21-2.69a50.1,50.1,0,0,1,1.06-7.28c.36-1.78.61-3.33,2.59-4,4.58-1.57,6.61,5.18,3.87,8.87s-5.5-3.43-2.31-2.83a2.12,2.12,0,0,0,.75.1c.75-1.16,0-4.21-1.76-2.92-.62.47-2.16,10.71-1.91,11.57.16.56.7.77.55,1.45s-.71.8-.88,1.32c-.39,1.19-.94,8.1-1.12,9.82a11.05,11.05,0,0,0,.92,2.19,73.09,73.09,0,0,1,3.59,12l.19,0,.11-.28c.25-2,1-1.92,1-2.27.19-1,.22-1.84,1.5-1.89,1.39.65.83,1.74,1.24,2.34.27.4.68.4.85,1s-.21.92-.25,1.46a2.31,2.31,0,0,1,.66.86c.17.48-.17.61-.26,1s.38,1,.23,1.49c-.2.73-.39.39-.13,1.27.18.6-.34,1-.44,1.51-.16.87.27,2.61,0,3.43s-.66,1.45-.86,2.15c-.12.45.28.84.15,1.3-.16.62-.86.94-1,1.6.75,1-.63,2.15-.61,2.62.11,1.87-2.08,5.32-2.08,5.66a22.54,22.54,0,0,1-1.07,6.81c0,.08-5,6.4-5.4,6.83a26.45,26.45,0,0,0-2.43,2.39,23.71,23.71,0,0,0,0,2.92m6.23.21h0c-2.56-3.54-4.37.62-3.64,2.89.47,1.45,1.95,2.31,3.26,1.22.53-.43,0-.86.79-1.59.62-.1.48,3-.16,3l-.57-.5c-.39,0-.6.3-.93.46-4.49,2-5.3-8.86-.54-7.93a7,7,0,0,0,1.19.25,7.82,7.82,0,0,0,.69-.72l.16-.05.36.35c0,.61.22,2.58-.61,2.58m-4,9.92h0c-.34-.81-1.72-2.34-1.17-2.66a13.33,13.33,0,0,1,2.37.07l.12.27a1.34,1.34,0,0,0-.49.92c.36.52,1.31,4.2,2,4.22a18.27,18.27,0,0,0,1.36-4.26c-.1-.34-.45-.52-.49-.89l.15-.17a7.58,7.58,0,0,1,2.33,0c.28.45-.34.87-.53,1.2-.71,1.23-1.82,5.8-2.72,6.57-1.07,0-2.52-4.17-3-5.22m8.19-.18h0c.49,1.91,4.26,0,3.55,3.31-1,4.54-4.74,1.18-5.56,1.7-.22.14-.46.56-.78.46l-.28-.39c.11-.46.24-2.49,1-2.35.54.46-.15,2,2.65,2.07,1.17,0,1.23-.81,1.26-1.81s-2.25-.87-2.94-2.46a2.25,2.25,0,0,1,2.34-3c.46.1.76.53,1.24.56L107,140c.77.35.54,2.77-.1,2.8-.4-.54-.6-1.41-1.29-1.67s-2,.67-1.75,1.51m3.46-10.94h0c-.78,1.58-1.32,3.62-2,5.29-.11.31-.39,1.69-.87,1.52-.78-.26-2.16-5.33-2.59-6.29-.23-.52-1.16-1.22-1.1-1.6.83-.6,1.61,0,2.16-.32l.44,0,.32.43c-.23.25-.41.55-.65.8,0,.74,1.29,4.27,1.79,4.26a20.67,20.67,0,0,0,1.37-4.21l-.73-.77c-.17-.68,2.51-.49,3-.47l.16.24c-.34.61-.92.37-1.28,1.09M63.94,157.82h0a20.89,20.89,0,0,0-2.78-1l-.16.16c-.29,4.34,1,8.77,0,13.15-.35,1.4-1.21,3.6-1.23,5l.2.07c4.33-2.94,11.89-14.24,4-17.3M53.54,99h0c-.22-.71,0-1.49-.21-2.2l-.47-.19a.77.77,0,0,0-.51.45c.13,4.5,3.12,14,6.14,17a.45.45,0,0,0,.2-.16c0-1.66-.57-2-1-3.37-1.26-3.88-2.9-7.69-4.13-11.56m38,17.06h0a12.84,12.84,0,0,0-1.2,2.75A1.18,1.18,0,0,0,91,119a5.65,5.65,0,0,0,.76-2.87c0-.06-.16-.15-.24-.11m-31.32,1.15h0c.09,2.49.3,10.28.84,12.37a19.57,19.57,0,0,0,1.72,4.78l.12,0,.07-.32c-1.29-1.69-1.22-37.86-3.42-39.4H59.2a1.83,1.83,0,0,0-.79,1.8c0,5.58,1.05,11.2,1.09,16.79,0,1.15.67,2.66.72,3.93M72.31,53.62h0c1.71-.68.71-2.81,1-4,.23-.88,2-3,.15-3.48-1.24.89-2.76,1.8-3.11,3.47-.18.85.34,4.68,1.91,4.06M82.72,83.46h0c-.62.21-2.48.38-2.7,1-.43,1.12-.21,35.85,0,40.34.08,1.92.28,9.08,0,10.7-.37,2.18.54,5.1-.12,7.11l-.23.24a20.26,20.26,0,0,1-4.73.07c-.39-.65-.16-6.25-.17-7.34,0-4.32-.07-8.63,0-13a43.12,43.12,0,0,1,0-5.21,27.93,27.93,0,0,0,.08-5.09c-.24-3-.14-6.18-.21-9.19a31.71,31.71,0,0,0,.06-4.35,4.61,4.61,0,0,1-.07-1.57c0-.38,0-11.78-.21-12.71a18.34,18.34,0,0,0-2.63-.85C70.06,83,68.63,81.76,67,81.05c-.55.14-.61,1.5-.62,2-.06,1.89-.31,3.63-.27,5.57a7.64,7.64,0,0,0,.38,1,50.1,50.1,0,0,0,3.24,9c.34.73,2.27,3.93,2.3,4.33-.39.59-1.2-1.2-1.33-1.4-.67-1-2.75-4.76-4-4.76l-.35.52a31.32,31.32,0,0,0,3.67,8.8c.3.48,1.4,2,1.32,2.42l-.27.08a53.15,53.15,0,0,1-6.77-11.57c-.44-1-.67-2.11-1.6-2.76h-.2l-.27.32c.77,2.83,1.8,5.65,2.76,8.42,1.54,4.51,2.24,9.39,3.51,14,1.49,5.38,1.65,19.39,1.88,25.42,0,.72,4.88,4.71,5.78,4.88.55.1,5.89-3.94,6-4.32s.87-11.58.93-12.81a60.59,60.59,0,0,1,3.64-18.44c.34-.89,2.71-7.11,2.71-7.44-.19-.22-.32-.39-.64-.38-1.55,1.17-5.26,3.31-7.22,3.36l-.16-.35c1.69-1.47,3.84-2.69,5.66-4.2,7-5.78,7.11-17.8,7.57-26.26l-.32-.11c-2.45,3.21-8,5.81-11.67,7.09" transform="translate(0 0)"/><path class="cls-2" d="M114.05,23.17a91,91,0,1,0,90.9,91,91,91,0,0,0-90.9-91m-88.15,91A88.2,88.2,0,0,1,112.67,26V202.41A88.19,88.19,0,0,1,25.9,114.18m89.53,88.23V26a88.24,88.24,0,0,1,0,176.46" transform="translate(0 0)"/><path class="cls-2" d="M20.69,159.63a2.61,2.61,0,0,0-.69,3.43,2.28,2.28,0,0,0,3.05,1.23A1.88,1.88,0,0,0,24,162l-.52-1.9c-.57-2.12.07-3.81,1.66-4.64,1.78-.93,4.17-.25,5.44,2.18a4.48,4.48,0,0,1-1.18,6.06l-1.27-1.27a2.94,2.94,0,0,0,1-4c-.83-1.58-2.05-1.93-3.05-1.41a2.1,2.1,0,0,0-.88,2.64l.49,1.81A3.57,3.57,0,0,1,24,165.82a4.09,4.09,0,0,1-5.36-2,4.06,4.06,0,0,1,.82-5.35Z" transform="translate(0 0)"/><polygon class="cls-2" points="14.45 149.32 25.01 145.5 25.61 147.18 15.05 151 16.52 155.05 14.96 155.62 11.43 145.83 12.98 145.26 14.45 149.32"/><path class="cls-2" d="M18.34,139,10,140.71,9.66,139l8.26-1.72c1.92-.41,2.79-1.68,2.42-3.45s-1.67-2.57-3.59-2.16l-8.26,1.73-.36-1.75,8.31-1.74a4.64,4.64,0,1,1,1.9,9.08" transform="translate(0 0)"/><path class="cls-2" d="M20.08,124.07l-12.87.69L7,120.25C6.79,117,8.87,114,13.1,113.78s6.56,2.54,6.74,5.81Zm-1.82-4.34c-.12-2.38-1.83-4.29-5.06-4.12s-4.78,2.23-4.65,4.61l.14,2.67,9.72-.52Z" transform="translate(0 0)"/><rect class="cls-2" x="12.52" y="101.36" width="1.82" height="12.88" transform="translate(-95 114.4) rotate(-86.38)"/><path class="cls-2" d="M16,101.58,7.6,100.11l.31-1.74,8.31,1.46c1.93.35,3.21-.52,3.52-2.29s-.6-3-2.53-3.35L8.9,92.72,9.21,91l8.36,1.48A4.64,4.64,0,1,1,16,101.58" transform="translate(0 0)"/><polygon class="cls-2" points="27.17 76.91 17.74 73.47 25.66 81.05 25.1 82.59 14.17 83.25 23.6 86.69 23 88.35 10.89 83.92 11.72 81.65 23.13 80.98 14.85 73.07 15.67 70.83 27.78 75.25 27.17 76.91"/><path class="cls-2" d="M38.76,57.06l-1.59-.89a4.61,4.61,0,0,1-.61,4.59c-1.83,2.67-5.49,3.82-9.08,1.35A6.36,6.36,0,0,1,25.56,53,5.71,5.71,0,0,1,32,50.54l-.34,1.72A4.07,4.07,0,0,0,26.9,54c-1.3,1.91-1.21,4.7,1.6,6.64S34,61.7,35.26,59.8a3.68,3.68,0,0,0-.52-5.2L32.2,58.3l-1.31-.91,3.48-5.09,5.2,3.58Z" transform="translate(0 0)"/><polygon class="cls-2" points="42.59 52.38 33.16 43.59 38.5 37.85 39.71 38.98 35.58 43.41 38.49 46.12 42.23 42.09 43.45 43.24 39.71 47.26 42.6 49.95 46.72 45.51 47.93 46.64 42.59 52.38"/><polygon class="cls-2" points="58.1 38.02 46.12 34.11 52.65 42.35 51.26 43.46 43.24 33.36 45.11 31.88 56.29 35.62 50.15 27.87 51.54 26.76 59.55 36.87 58.1 38.02"/><polygon class="cls-2" points="63.88 34.06 57.47 22.88 64.26 18.97 65.08 20.41 59.84 23.43 61.81 26.86 66.57 24.13 67.4 25.58 62.64 28.32 64.61 31.74 69.85 28.72 70.68 30.16 63.88 34.06"/><path class="cls-2" d="M76.29,21.86l-1.79.73,2,4.89-1.68.68L70,16.19l4.5-1.82a3.73,3.73,0,0,1,5.1,2.07A3.63,3.63,0,0,1,78.05,21l4.87,3.86L81,25.65Zm.14-1.79A2.22,2.22,0,1,0,74.77,16l-2.53,1,1.66,4.1Z" transform="translate(0 0)"/><path class="cls-2" d="M93.46,18.27l-5.54,1.36-.47,3.82-1.85.45,1.91-13.75,2-.49,8,11.31-1.88.46Zm-5.31-.41,4.3-1.05-3.54-5.09Z" transform="translate(0 0)"/><polygon class="cls-2" points="101.19 20.55 99.87 7.71 101.64 7.53 102.79 18.7 108.85 18.07 109.02 19.74 101.19 20.55"/><polygon class="cls-2" points="113 19.65 113.33 6.76 121.16 6.96 121.12 8.62 115.07 8.46 114.97 12.42 120.45 12.56 120.41 14.24 114.92 14.09 114.82 18.04 120.87 18.2 120.82 19.85 113 19.65"/><path class="cls-2" d="M132.44,14.75a6.39,6.39,0,0,1,7.82-5,5.5,5.5,0,0,1,4.53,5.35l-1.75.16a3.8,3.8,0,0,0-3.17-3.91c-2.27-.57-4.86.55-5.66,3.82s.94,5.49,3.22,6a4.1,4.1,0,0,0,4.73-2l1.39,1A5.62,5.62,0,0,1,137,22.83a6.35,6.35,0,0,1-4.6-8.08" transform="translate(0 0)"/><rect class="cls-2" x="143.24" y="18.88" width="12.9" height="1.82" transform="translate(78.19 152.78) rotate(-69.27)"/><polygon class="cls-2" points="166.23 20.31 167.9 21.16 157.62 30.4 156.05 29.6 157.58 15.89 159.26 16.75 157.91 27.97 166.23 20.31"/><rect class="cls-2" x="162.93" y="28.94" width="12.89" height="1.82" transform="translate(51.5 155.09) rotate(-56.73)"/><polygon class="cls-2" points="181.53 32.89 174.42 41.6 173.04 40.47 180.15 31.76 176.82 29.03 177.86 27.75 185.91 34.34 184.87 35.62 181.53 32.89"/><path class="cls-2" d="M187.34,49.06l-3.91-4.16-3.56,1.48L178.56,45l12.9-5.12,1.41,1.5L187,54l-1.33-1.41Zm-2.27-4.83,3,3.23,2.68-5.6Z" transform="translate(0 0)"/><polygon class="cls-2" points="200.3 53.19 191.18 59.76 190.14 58.31 199.26 51.74 196.74 48.24 198.08 47.27 204.16 55.72 202.82 56.69 200.3 53.19"/><polygon class="cls-2" points="195.5 66.47 206.68 60.05 207.59 61.63 196.4 68.05 195.5 66.47"/><path class="cls-2" d="M210.1,74.81a2.63,2.63,0,0,0,.92-3.39,2.29,2.29,0,0,0-3-1.42A1.88,1.88,0,0,0,207,72.28l.4,1.93c.43,2.16-.32,3.8-2,4.53-1.83.81-4.19,0-5.29-2.54a4.47,4.47,0,0,1,1.56-6l1.19,1.34a2.94,2.94,0,0,0-1.28,4c.72,1.63,1.92,2.06,2.95,1.6a2.1,2.1,0,0,0,1.05-2.57l-.37-1.85a3.55,3.55,0,0,1,2-4.3,4.42,4.42,0,0,1,4.06,7.64Z" transform="translate(0 0)"/><path class="cls-2" d="M211,91l-5.15,1.12-.38-1.74L218,87.63l1,4.6a3.77,3.77,0,0,1-2.89,4.7,3.73,3.73,0,0,1-4.56-3.09Zm2.11,2.18c.33,1.52,1.37,2.26,2.66,2a2.21,2.21,0,0,0,1.66-2.92l-.55-2.52-4.31.94Z" transform="translate(0 0)"/><polygon class="cls-2" points="207.78 102.88 220.63 101.82 221.27 109.64 219.62 109.78 219.13 103.73 215.18 104.06 215.63 109.54 213.96 109.68 213.51 104.2 209.57 104.52 210.07 110.56 208.42 110.7 207.78 102.88"/><path class="cls-2" d="M213.54,119.29l.1-1.93-5.26-.28.09-1.79,12.87.67-.26,4.86a3.71,3.71,0,0,1-4,3.73,3.6,3.6,0,0,1-3.48-3.31L208,124l.12-2.07Zm1.55.88a2.22,2.22,0,1,0,4.42.23l.14-2.72-4.41-.23Z" transform="translate(0 0)"/><path class="cls-2" d="M211.79,129.05l8.32,1.67-.34,1.73-8.27-1.66c-1.93-.38-3.22.45-3.58,2.22s.53,3,2.45,3.4l8.27,1.66-.35,1.75L210,138.15a4.64,4.64,0,1,1,1.82-9.1" transform="translate(0 0)"/><path class="cls-2" d="M210.92,151.45a2.62,2.62,0,0,0,3-1.84,2.28,2.28,0,0,0-1.2-3.06,1.85,1.85,0,0,0-2.31.93l-1,1.68c-1.16,1.87-2.82,2.55-4.52,2-1.89-.67-3-2.89-2.11-5.48a4.46,4.46,0,0,1,5.22-3.26l-.06,1.79a2.92,2.92,0,0,0-3.63,2c-.6,1.68,0,2.81,1.05,3.19a2.1,2.1,0,0,0,2.52-1.15l1-1.6a3.55,3.55,0,0,1,4.37-1.79,4.41,4.41,0,0,1-2.27,8.34Z" transform="translate(0 0)"/><rect class="cls-2" x="204.2" y="150.97" width="1.82" height="12.89" transform="translate(-25.18 274.97) rotate(-64.55)"/><rect class="cls-2" x="200.77" y="157.56" width="1.82" height="12.89" transform="translate(-40.61 258.16) rotate(-60.35)"/><path class="cls-2" d="M38.06,176.21a3.77,3.77,0,1,1-5.31-.53,3.78,3.78,0,0,1,5.31.53" transform="translate(0 0)"/><path class="cls-2" d="M51.25,196.6,46.82,193,43.49,195,42,193.74l12.09-6.8,1.59,1.29-4.12,13.26-1.49-1.21Zm-2.9-4.48,3.45,2.79L53.69,189Z" transform="translate(0 0)"/><path class="cls-2" d="M58,202.67a1.27,1.27,0,0,1,.39,1.76,1.26,1.26,0,1,1-.39-1.76" transform="translate(0 0)"/><path class="cls-2" d="M63.1,208.65,68.72,197l4.06,2c3,1.43,4.54,4.69,2.69,8.51s-5.4,4.52-8.35,3.09Zm4.66.51c2.14,1,4.65.47,6.06-2.44s.37-5.27-1.78-6.31l-2.4-1.17L65.39,208Z" transform="translate(0 0)"/><path class="cls-2" d="M79.18,213.06a1.28,1.28,0,0,1,.78,1.63,1.25,1.25,0,0,1-1.62.75,1.22,1.22,0,0,1-.76-1.6,1.25,1.25,0,0,1,1.6-.78" transform="translate(0 0)"/><polygon class="cls-2" points="97.67 220.4 99.7 210.56 93.37 219.51 91.77 219.17 89.53 208.46 87.5 218.29 85.77 217.93 88.38 205.3 90.75 205.79 93.07 216.99 99.68 207.64 102.01 208.13 99.4 220.75 97.67 220.4"/><path class="cls-2" d="M106.24,215a6.4,6.4,0,0,1,6.53-6.6,5.48,5.48,0,0,1,5.59,4.2l-1.66.55a3.82,3.82,0,0,0-4-3.11c-2.35-.05-4.61,1.62-4.68,5s2.14,5.14,4.48,5.18a4.1,4.1,0,0,0,4.17-3l1.58.62a5.64,5.64,0,0,1-5.77,4,6.34,6.34,0,0,1-6.28-6.85" transform="translate(0 0)"/><path class="cls-2" d="M122.58,214.91a6.4,6.4,0,0,1,5.38-7.56,5.49,5.49,0,0,1,6.2,3.24l-1.56.82a3.82,3.82,0,0,0-4.41-2.44c-2.32.34-4.29,2.35-3.81,5.68s2.94,4.73,5.26,4.39a4.11,4.11,0,0,0,3.63-3.65l1.64.35a5.63,5.63,0,0,1-5,4.92,6.33,6.33,0,0,1-7.29-5.75" transform="translate(0 0)"/><path class="cls-2" d="M138.72,212.24a6.4,6.4,0,0,1,4.1-8.32,5.48,5.48,0,0,1,6.64,2.21l-1.41,1.06a3.81,3.81,0,0,0-4.74-1.7c-2.24.69-3.86,3-2.86,6.21s3.66,4.2,5.9,3.49a4.08,4.08,0,0,0,3-4.18l1.69.09a5.64,5.64,0,0,1-4.2,5.66,6.33,6.33,0,0,1-8.11-4.52" transform="translate(0 0)"/><polygon class="cls-2" points="159.46 197.2 161.14 196.38 162.38 210.15 160.8 210.93 150.75 201.5 152.45 200.66 160.62 208.46 159.46 197.2"/><rect class="cls-2" x="167.54" y="192.85" width="1.82" height="12.89" transform="translate(-80.68 121.65) rotate(-32.48)"/><rect class="cls-2" x="173.61" y="188.64" width="1.82" height="12.9" transform="matrix(0.8, -0.6, 0.6, 0.8, -82.02, 143.09)"/><rect class="cls-2" x="179.4" y="183.97" width="1.82" height="12.9" transform="translate(-80.66 164.6) rotate(-40.91)"/><path class="cls-2" d="M190.05,176.7a3.77,3.77,0,1,1,.53,5.31,3.77,3.77,0,0,1-.53-5.31" transform="translate(0 0)"/></svg>